/* XPM */
static char *back3[] = {
/* columns rows colors chars-per-pixel */
"64 64 111 2 ",
"   c #030101",
".  c #0B0403",
"X  c #0E0905",
"o  c #0F0E08",
"O  c #130503",
"+  c #1B0605",
"@  c #130C06",
"#  c #1B0B06",
"$  c #150E09",
"%  c #1B0E09",
"&  c #141007",
"*  c #1B1007",
"=  c #16110A",
"-  c #1B130C",
";  c #1B180F",
":  c #1D1710",
">  c #1E1912",
",  c #230605",
"<  c #2B0706",
"1  c #230A06",
"2  c #2B0A07",
"3  c #230E09",
"4  c #2C0D09",
"5  c #310A07",
"6  c #380A07",
"7  c #340D09",
"8  c #3B0D09",
"9  c #23130C",
"0  c #2B130C",
"q  c #24190F",
"w  c #2C1A0D",
"e  c #33130C",
"r  c #3C130C",
"t  c #341B0D",
"y  c #3A1C0E",
"u  c #241710",
"i  c #2D1710",
"p  c #241B13",
"a  c #2B1A12",
"s  c #311710",
"d  c #3B1610",
"f  c #331A11",
"g  c #3B1910",
"h  c #2D2318",
"j  c #342315",
"k  c #3A2413",
"l  c #430D0A",
"z  c #4B0E0B",
"x  c #540F0D",
"c  c #43130C",
"v  c #4B140D",
"b  c #461D0E",
"n  c #4B1B0E",
"m  c #53140E",
"M  c #5B130E",
"N  c #531A0E",
"B  c #5B1F0F",
"V  c #451610",
"C  c #4A1710",
"Z  c #441B12",
"A  c #4B1B11",
"S  c #551610",
"D  c #5C1710",
"F  c #541A11",
"G  c #5C1A11",
"H  c #63140F",
"J  c #6B140F",
"K  c #63190F",
"L  c #661710",
"P  c #6E1510",
"I  c #631A12",
"U  c #6B1B12",
"Y  c #741511",
"T  c #7A1612",
"R  c #731C12",
"E  c #7D1A13",
"W  c #41250D",
"Q  c #54220F",
"!  c #5E230F",
"~  c #452210",
"^  c #4F2010",
"/  c #462916",
"(  c #432E19",
")  c #562512",
"_  c #5C2312",
"`  c #5D2B14",
"'  c #51301C",
"]  c #632211",
"[  c #6C2312",
"{  c #652C14",
"}  c #6C2C13",
"|  c #732314",
" . c #7C2214",
".. c #712914",
"X. c #7C2C16",
"o. c #633416",
"O. c #6A3315",
"+. c #633817",
"@. c #7A3017",
"#. c #7B3D17",
"$. c #841C14",
"%. c #8C1A14",
"&. c #971D16",
"*. c #981F17",
"=. c #852216",
"-. c #8C2216",
";. c #822E16",
":. c #942117",
">. c #9F2218",
",. c #953B19",
"<. c #C1271C",
/* pixels */
"@ @ @ O X = .   . Y r @ & & 0 7 6 2 + 5 O , 8 e 2 T 6 .       O . .   O , 5 4 7 4 e 7 5 H m 1 = 5 Y M 4 @ * * & $ 3 # 4 c # O @ ",
"3 @ # - : =     v <.=.! n m =.U 4 + O 1 + + # # + l x < O   O K l < m M r 2 # % * 3 r b v | U | @.e . 4 % $ - * = * 5 % 0 e @ # ",
"7 @ 3 % % . . . Y 7 r r R G 0 * * 7 v #     . . . #  .6 2 1 H U v H e 9 - 3 1 7 v # $ & = - 4 ` #.@ O 7 @ @ = * & $ 3 9 % 8 @ 2 ",
"v r S 7 # c P Y v . . X @ @ = - - c 2 . < 6 l 8 , 4 !     + 7 O . @ $ * ; t 7 # 7 @ @ & = = = * _ % % c @ @ v c * $ 0 , @ l r m ",
">.$.S < L l , , . . O O @ . & = w v $ # $.:.K 6 c N n O   . o . @ . @ = ; C 4 & 5 $ @ & $ $ $ = r 3 % r $ q G 0 9 9 % @ 2 *.-.M ",
"1 5 4 Y &.Y ,       + O + O . $ m 0 # 5 4 4 , K $.H c #   .     , 2   . c c = & e * = = $ : $ O 8 0 - 0 Z d r : - = @ 1 6 1 5 1 ",
"@ 1 # Y < H Y z 6 , @   X @ O 1 | 3 r , @ 1 @ M z , 5 .     O l $.| < . U y & = 9 9 = = = : = % % 5 9 * N g - - = % e 7 + @ 3 @ ",
"O 1 X } 5 + O , 6  .{ 1 $ @ @ 3 ;.4 $ . $ , . b Q , O   . l R H 2 + H < [ n = = - e 0 u - = = $ # 9 r 0 r - = p y 0 3 @ X # 1 . ",
". 2 % ` U 4 $ $ 3 8 1 # & @ @ # n 3 $ $ $ 1 1 t X.5 1 5 8 Y 4       2 , e e $ = : : e u : $ = - - - 9 i 0 f d U b = $ @ $ $ 2 % ",
"O 3 % r m % * * $ % $ X & @ @ # C % $ $ @ 1 3 % I + . 4 z < #       + v c 7 - - : = - > > : : : : : % s g g i d V * @ . . . 1 3 ",
". @ @ 3 N * & & @ X 4 # X # 1 % C % * 9 % $ @ & S 1 X 3 + X 4 O       7 r 7 * $ @ : u u h p : u : - 3 % - $ $ 3 V % +     . @ @ ",
"    @ % L 0 $ .     6 l . @ # - G 7 3 4 = = * @ C D % % % 5 8 ,       O r S 9 9 $ - 9 i i i 9 9 9 0 4 - = $ @ $ e 2 8 + . O X # ",
", .   . l O O 1 @ O 5 N H + X & v m v M - = = $ S $.u 3 # . . + .     . 0 L ) r % u : : > : : % # % $ - X @ $ $ 1 z ,     .   X ",
", 4 2 O 6 7 7 6 e 1 + , B e . @ _ F $ 0 9 q F G R E % 9 $ . . 3 5   . . e ..C w - u = ; > > : 3 3 - $ O X @ @ $ 3 N 4       . X ",
"    + 2 M =.2 O @ O , 7 1 [ , 4 1 + @ c [ +._ C U P e i - X . X 4 O O 4 e 4 c t p p p > : : : u 9 : - O $ : $ % r 8 2 ,     + 6 ",
". O 1 8 Q  .v n e % O O . m v O . 5 M v e 3 $ o $ ..L V g 0 O   O . + 3 3 $ - k / k h p p p p : : : : u - : % * v 6 7 M 8 , M # ",
"@ # - - t } - > i t 0 2   6 Y x Y z O X @ $ * = = O.s : u s t e 2 @ * = @ @ o = h k ' ~ p : - - X : : $ 8 7 4 - U S 4 O O c 4 O ",
"= $ 9 - * ) - = $ X O H 7 5 %.J 6 . . . @ & * 9 = ~ y $ = = % e 5 o & = 9 3 % @ = > > p p 3 # 9 O X $ 7 C % 4 | C : = $ . 4 + O ",
"* d l 4 e ] 0 @ . , z 8 5 2 O     . @ @ = 0 C 4 e Z A $ % 1 * 1 4 $ @ @ = $ 3 # & o & @ 5 0 4 c C r 4 r 3 # % [ I $ $ = $ % 4 l ",
"0 f 9 % - C # O + < O O O   . O     $ 0 0 s i % * c e $ $ % 3 1 1 $ = @ o @ @ # X o $ 4 r 0 3 # O O 4 4 # @ $ 0 =.q = * 0 0 s i ",
"u > - $ 0 i # , + . . + .     < , e 8 S e > : % * e % $ $ $ 4 3 # & - * $ @ 9 3 o $ 3 4 & * * @ X . y e % $ = = U F i e S i : - ",
"9 % - : d 9 # X # O . , # X     + U v e s % - = s s - $ @ $ % 3 % % = = $ 9 0 = o 4 n * & & = $ $ X C 4 * = : : g  .F u d 0 = = ",
"V c d A s - % $ # # . , 3 - $ X 2 6 C r C C d A Z - - = $ - = % 1 : > > - % & = $ N c & & & & @ # $ s 7 0 $ : > q s G g d V V d ",
"L S  .) = $ - = - . + 2 2 u - @ e O 7 G I I U @.p $ % = : : = $ 1 0 : > i q = @ = N # . . & @ X X $ % D ] # - : u s V C S M L R ",
"x . 4 U . @ @ = X X e O % e 8 # t . X - * - > / ; $ @ @ = > > - @ i l s i d u $ @ r .     @ & & % 4 4 D U n v r : s q 9 # O # q ",
"8 . # [ . . O O X e 9 . $ 0 v v 4 . % q q * ; g 0 % @ @ % % : $ X % c L u 0 0 @ @ 8 , +   X & @ 0 y % # 1 r 7 c i i i q 1 . , O ",
"# O + 8 .   .   @ y X . . , 8 B 1 + O . 0 c + # M c , @ @ @ X     X 2 4 # e # . + 5 5 7   . $ 9 3 @ O 2 7     . 9 w q 9 3 + + O ",
"l e + l .   .   t t @     . + y b . O X N # 2 1 c G m v m v r ,         9 w . X 1 . < 6     O 2 4 @ . . 5 O     + % % = 9 8 2 8 ",
"8 v O z + O . . 7 # .     .   1 H . , r 4     l E U # # # + 8 l .     . W 0 @ @ 4 . c v     . , z 1     + .     @ * @ # 4 8 8 + ",
", 6 + P , , . O O .   .   . O , P 4 6 2 X , . M z 1 X @ . . . @ + . . . H e & = , . W 9     O z + 2 # O , @ e 3 $ $ e 7 , + 2 O ",
"@ # O } 5 # . + O .   . X X @ 3 ;.0 $ X @ 1 X b N # @ @ @ @ @ @ & $ X @ } A & = $ . K 3     z l   % 7 l ! b N b y e 0 @ O @ , . ",
"% 2 # ` U 3 % @ 3 5 @ X @ @ @ % n 3 & $ @ 1 1 t ;.8 $ $ * 7 4 X & @ @ $ c e = = @ + P , O c K 5 % - 9 3 3 # 7 U b $ & $ @ $ 3 % ",
"@ 3 % r S % - = & % # & $ $ @ , C * & & @ 1 3 % D 0 * = $ % # @ & & o O c 4 $ - $ Y x . . O , . 3 : % e s 2 v I c = - % $ $ 1 9 ",
"% @ @ 0 F * = = * & 3 @ @ $ % % v % * 3 * @ @ @ S 0 - = * & % 3 @ $ * 3 e e - $ $ z %.Y 5 , . . + X + # . O D 8 V - = * * % $ @ ",
"& & = $ R e % * = * 7 c 4 % $ - G 4 3 4 @ X . . v G * - = * 9 c 4 # * * r m 9 9 $ - + 7 6 l z M 8 .       l < . 5 4 % 0 9 - & $ ",
"= - & % :.C 9 - * e 3 4 4 # & & S S v M . ,     v E 9 9 * 9 4 3 7 1 & X 0 U ) 8 - 3 : X     . < ^ { S X , T O X 3 4 4 m v = = & ",
"* t F F :.v * - - - & - % $ % @ _ N @ # , M O   < $.# * - - = = 1 $ $ @ e ..C e > > : $ $ X X + + # M H %.M . @ 3 r * * e 9 w N ",
"{ o.G G  .m 0 - = $ o % * & $ 5 4 # # z =.8   . { ,.l 9 - $ $ $ % = & 4 7 0 V f p p p : = : : u 9 $ . R J O $ $ r e & * v [ +.G ",
"e 3 $ o w =.S V t * X O % * % 4 5 v ! K M , 5 8 r e M n g 9 $ X $ * * 0 3 o - k ( k h p p p p : - . X M 6 . # % C 6 c M c e 9 $ ",
"o $ = = w } - p i f t 4 % % 4 5 < 1 #     1 +     ) 0 - u t f 5 3 * * = @ $ & = p ( ' Z p > - = O   ~ [ x 5 1 9 P S e % @ X % * ",
"& $ 9 - - ) - = - $ % l , # O X . O X   + +   . @ ~ f & = = $ e 5 @ $ $ 9 3 O o = : > p p % # 9 # + b 2 v % 4 [ F : = $ . & = 9 ",
"- e 8 4 e ] 0 $ # % % 4 3       X $ @ . , 2 8 2 e Z F @ % % # , 4 X   X % $ 3 % $ o o $ e 4 2 c b v 7 e 3 % 1 ..G $ = - o * i l ",
"0 f u % 3 C % O . + 1 2 # . X X @ @ & 0 4 i s % % c s $ $ # + O O   O O o o . +   . # 4 r 0 3 # O # 4 4 # @ o 0 =.9 = * 0 4 d u ",
"u > 3 $ q 0 # . . O , # # = * = @ * t v e > - % % s % $ $ @ X . . + +   .   . < v z v 4 & * * @ O . t e % @ = = U F u f S i > - ",
"u $ - - d 9 O . . . O 1 X . . . X 4 0 s d = - = i i % # X $ % < 6 < X     X   V R 2 2 # @ & & @ @ @ c 0 3 = - > g  .C u d 0 = - ",
"V V f A s % . . + O   . . . O , + 4 5 d V c d Z V - % X . X O x M + . .       H c       o & & @ @ @ r e 4 $ > > 0 s G d g V c d ",
"L U  .` = O .   . + .   O < , 8 4 6 c G I U U @.p $ % X X O % < # # O .     . Y O         . & @ @ $ # M _ $ : 9 : i C A I I U | ",
"$ : j k = X       . + , O O   O . . X % - - p / : $ O X + % o   + 1 O . X   + E O           o & % 3 4 G | F V r : f u : u - : p ",
"p : p Z * @       X X < O 5 l ,       % q : > k 0 % O O X . X X , X   . 1 O . L 7 , 5 . .   . o 0 y % 0 S =.F A i a u p p u : p ",
"u : - r K 4 # X @ % % 7 O # 8 O .     $ 0 - - 9 L r # @ X X             . + < z O , 8 O 2 8 , + 4 @ % 8 8 *.0 % 3 p u u 9 i > - ",
"9 * $ % r N M B G V 3 # X . # l x + . @ 9 * * $ 9 F S S I l , .           . # z < 4 O X X O O 6 3 X 3 4 X z 1 @ # % % - - 9 * = ",
"9 = o @ r 0 % 0 i u u X X % X O 6 ,   @ 9 * & $ 4 r # 0 s 9 # c z 7 8 7 O . $ 3 S < . @ @ . X 4 @ % e 3 O 1 $ # % % # - - 9 = $ ",
"9 * $ 0 m % & 1 - : : $ O X     +   . $ q * = * M 0 @ # 3 - = : 4 1 + c 4 3 - $ % % @ $ = $ $ % $ 1 c @ # # - - * 9 - - - 9 * = ",
"v 9 w r % # 4 1 X O : : > :   . O   O 9 c e 9 r 5 $ 3 4 $ @ * - = : $ $ u p 9 - = : % - * 9 9 e e m 2 # # $ 3 9 9 p > p 0 b 0 q ",
"r m _ e 0 $ $ @ = % = $ : a % . + + 4 0 0 S ) b 0 * % @ & & & - $ p u % q # # # $ * 3 3 r F c N F G r @ . X X 0 4 0 e 0 0 e M _ ",
"G m r 9 1 9 & @ $ = = $ . - 4 O O O % 0 C D v 0 1 9 - & @ = = = X $ 3 % $ $ @ 1 X X X o * = & $ - - A v # X X 1 % * 0 9 0 F m c ",
"9 : 9 n c e 0 # $ : 9 - # % 8 1 < 2 8 0 0 - - e v 0 w a u - 9 - - O 4 7 1 5 # # $ @ X X X @ @ X = = = c C 3 X O X @ 5 e 0 0 : : ",
"$ : = y r r } [ l 4 s i % 3 D D 6 r 9 % # = $ 9 m % $ $ * % 0 3 3 % V U l 6 3 $ @ $ @ @ X @ @ @ = = = $ r T , @ # 8 r 3 9 % = = ",
"0 9 q e r % O + J x + $ = = % e 0 v @ .   . .   { 0 .       . . o $ % 3 0 v 0 $ @ & @ $ & & @ @ - q u % # P U % V < X $ % i 9 9 ",
"9 i 9 q s p # + %.l O % $ * $ & - , .       + O b J +   . O < .     $ $ = 3 - = * & @ , 1 & & $ & - 9 * % 7 &.Y v X X O $ 3 i u ",
"- - : > > i % X 5 z . @ - - = = = 0 @       O . 2 l           .     $ $ = 9 9 * = % % 4 @ @ $ % o @ @ = 0 P D 3 r + # X @ $ : > ",
"0 i a a u : + . . l . X - > - $ @ 7 O X . .     O m .         O O   @ $ @ 3 0 = & $ $ 0 % & * % $ X @ @ x S 3 : 3 0 # X O 4 0 p ",
"y i h 9 % 3 X     6 @ @ & = = = @ e c # . .       J < . . O . + 7 , .   @ 3 7 $ = & = $ 9 $ - % % @ @ 0 4 % = - s 9 0 r @ e f p ",
"9 * = @ = = .   . z % = = & @ $ O @ v 7           %.z . . . O . . +     . # 8 # = = $ o 3 3 % $ 1 # # 4 % : = - 3 3 X m 3 - 9 = "
};
