/* XPM */
static char * coll5_xpm[] = {
"64 64 635 2",
"  	c #130C06",
". 	c #130503",
"+ 	c #0E0905",
"@ 	c #16110A",
"# 	c #0B0403",
"$ 	c #030101",
"% 	c #741511",
"& 	c #3C130C",
"* 	c #141007",
"= 	c #2B130C",
"- 	c #340D09",
"; 	c #380A07",
"> 	c #2B0A07",
", 	c #1B0605",
"' 	c #310A07",
") 	c #230605",
"! 	c #3B0D09",
"~ 	c #33130C",
"{ 	c #7A1612",
"] 	c #2C0D09",
"^ 	c #63140F",
"/ 	c #53140E",
"( 	c #230A06",
"_ 	c #5B130E",
": 	c #1B1007",
"< 	c #150E09",
"[ 	c #230E09",
"} 	c #1B0B06",
"| 	c #43130C",
"1 	c #1B130C",
"2 	c #1D1710",
"3 	c #4B140D",
"4 	c #C1271C",
"5 	c #852216",
"6 	c #5E230F",
"7 	c #4B1B0E",
"8 	c #6B1B12",
"9 	c #430D0A",
"0 	c #540F0D",
"a 	c #2B0706",
"b 	c #63190F",
"c 	c #1B0E09",
"d 	c #461D0E",
"e 	c #732314",
"f 	c #7A3017",
"g 	c #731C12",
"h 	c #5C1A11",
"i 	c #7C2214",
"j 	c #23130C",
"k 	c #5D2B14",
"l 	c #7B3D17",
"m 	c #551610",
"n 	c #6E1510",
"o 	c #1B180F",
"p 	c #341B0D",
"q 	c #5C2312",
"r 	c #9F2218",
"s 	c #841C14",
"t 	c #661710",
"u 	c #2C1A0D",
"v 	c #942117",
"w 	c #531A0E",
"x 	c #0F0E08",
"y 	c #4A1710",
"z 	c #24190F",
"A 	c #981F17",
"B 	c #8C2216",
"C 	c #971D16",
"D 	c #441B12",
"E 	c #3B1610",
"F 	c #4B0E0B",
"G 	c #3A1C0E",
"H 	c #3B1910",
"I 	c #6C2C13",
"J 	c #652C14",
"K 	c #822E16",
"L 	c #54220F",
"M 	c #6C2312",
"N 	c #241710",
"O 	c #241B13",
"P 	c #7C2C16",
"Q 	c #2D1710",
"R 	c #331A11",
"S 	c #631A12",
"T 	c #1E1912",
"U 	c #311710",
"V 	c #451610",
"W 	c #140D08",
"X 	c #0B0603",
"Y 	c #19140E",
"Z 	c #21150E",
"` 	c #180E09",
" .	c #2A2116",
"..	c #5C1710",
"+.	c #21120B",
"@.	c #221513",
"#.	c #403337",
"$.	c #291F20",
"%.	c #241717",
"&.	c #392C30",
"*.	c #281715",
"=.	c #2A150F",
"-.	c #651710",
";.	c #3F190C",
">.	c #B2959E",
",.	c #59484D",
"'.	c #413237",
").	c #9A7F87",
"!.	c #3B2F31",
"~.	c #140E0A",
"{.	c #1C1710",
"].	c #5B1F0F",
"^.	c #541A11",
"/.	c #7D1A13",
"(.	c #2D0906",
"_.	c #020000",
":.	c #080302",
"<.	c #32130C",
"[.	c #4E1A0B",
"}.	c #4E3C40",
"|.	c #846B72",
"1.	c #6B5559",
"2.	c #6E555C",
"3.	c #6B5259",
"4.	c #604B4F",
"5.	c #826970",
"6.	c #554449",
"7.	c #100C07",
"8.	c #220D08",
"9.	c #633817",
"0.	c #0C0704",
"a.	c #2F1E20",
"b.	c #62525B",
"c.	c #372C31",
"d.	c #220806",
"e.	c #270F0C",
"f.	c #3B2B2E",
"g.	c #7A6168",
"h.	c #94787F",
"i.	c #38282A",
"j.	c #644C52",
"k.	c #6D5359",
"l.	c #332324",
"m.	c #70585D",
"n.	c #745D63",
"o.	c #4C3C41",
"p.	c #211614",
"q.	c #20110A",
"r.	c #712914",
"s.	c #020101",
"t.	c #3C3135",
"u.	c #D9BBCB",
"v.	c #64545C",
"w.	c #010000",
"x.	c #1D1416",
"y.	c #785D64",
"z.	c #8B6E75",
"A.	c #675155",
"B.	c #3D2C2E",
"C.	c #4A383A",
"D.	c #4F3C3F",
"E.	c #3B2A2C",
"F.	c #3A2A2C",
"G.	c #715A5F",
"H.	c #8C727A",
"I.	c #21181A",
"J.	c #16110B",
"K.	c #6A3315",
"L.	c #220B06",
"M.	c #372C30",
"N.	c #CAAAB6",
"O.	c #675358",
"P.	c #211314",
"Q.	c #453034",
"R.	c #674F55",
"S.	c #584347",
"T.	c #402F31",
"U.	c #533F42",
"V.	c #413032",
"W.	c #473437",
"X.	c #6F585D",
"Y.	c #836C71",
"Z.	c #5B4A4E",
"`.	c #251B1D",
" +	c #1A120E",
".+	c #0D0905",
"++	c #562512",
"@+	c #8C1A14",
"#+	c #6B140F",
"$+	c #452210",
"%+	c #230B06",
"&+	c #32272A",
"*+	c #B4959E",
"=+	c #614C50",
"-+	c #28191A",
";+	c #483337",
">+	c #533E42",
",+	c #463436",
"'+	c #443234",
")+	c #503D40",
"!+	c #624C50",
"~+	c #6E575C",
"{+	c #644F53",
"]+	c #5A494D",
"^+	c #493D3F",
"/+	c #1D1211",
"(+	c #100402",
"_+	c #632211",
":+	c #4B1B11",
"<+	c #170503",
"[+	c #2D2225",
"}+	c #A78991",
"|+	c #5B464A",
"1+	c #221515",
"2+	c #423033",
"3+	c #564145",
"4+	c #644E52",
"5+	c #513E41",
"6+	c #423133",
"7+	c #655054",
"8+	c #725E62",
"9+	c #181213",
"0+	c #380F0A",
"a+	c #180605",
"b+	c #372B2F",
"c+	c #A98A93",
"d+	c #5F494D",
"e+	c #231616",
"f+	c #322224",
"g+	c #39282A",
"h+	c #412F32",
"i+	c #523E42",
"j+	c #70585E",
"k+	c #6A5459",
"l+	c #665054",
"m+	c #413033",
"n+	c #120B0C",
"o+	c #0E0302",
"p+	c #1D0605",
"q+	c #58474D",
"r+	c #A68A93",
"s+	c #82696F",
"t+	c #493739",
"u+	c #281A1A",
"v+	c #302022",
"w+	c #362527",
"x+	c #3F2D30",
"y+	c #574347",
"z+	c #554144",
"A+	c #4F3B3F",
"B+	c #523D41",
"C+	c #5C464A",
"D+	c #3E2F31",
"E+	c #191011",
"F+	c #110A07",
"G+	c #0D0805",
"H+	c #0A0302",
"I+	c #6E5A60",
"J+	c #D4B0BC",
"K+	c #AD8D97",
"L+	c #91757C",
"M+	c #5F4A4E",
"N+	c #251818",
"O+	c #2C1D1E",
"P+	c #332224",
"Q+	c #352527",
"R+	c #3C2B2D",
"S+	c #402E31",
"T+	c #4B373B",
"U+	c #3A2B2D",
"V+	c #1D1314",
"W+	c #0F0A06",
"X+	c #140D09",
"Y+	c #1A120B",
"Z+	c #090504",
"`+	c #604D52",
" @	c #B6959E",
".@	c #9A7983",
"+@	c #886C74",
"@@	c #2A1C1D",
"#@	c #302121",
"$@	c #372729",
"%@	c #433134",
"&@	c #191012",
"*@	c #0D0904",
"=@	c #1B150F",
"-@	c #0A0504",
";@	c #524346",
">@	c #A0848B",
",@	c #977680",
"'@	c #624C51",
")@	c #332325",
"!@	c #3E2D2F",
"~@	c #483538",
"{@	c #4A363A",
"]@	c #3F2C30",
"^@	c #3C2A2D",
"/@	c #39292B",
"(@	c #150D0F",
"_@	c #0D0804",
":@	c #462916",
"<@	c #1C1711",
"[@	c #0E0806",
"}@	c #3F3235",
"|@	c #7F676D",
"1@	c #846A71",
"2@	c #6C555A",
"3@	c #4F3B3E",
"4@	c #5A4448",
"5@	c #654D53",
"6@	c #644B51",
"7@	c #513B40",
"8@	c #402E30",
"9@	c #2F2022",
"0@	c #1F1517",
"a@	c #0D0708",
"b@	c #100905",
"c@	c #1A0D08",
"d@	c #0C0705",
"e@	c #2E2124",
"f@	c #614B4F",
"g@	c #745C61",
"h@	c #786066",
"i@	c #6F575C",
"j@	c #614A4F",
"k@	c #6F545B",
"l@	c #6B5158",
"m@	c #4A373A",
"n@	c #322425",
"o@	c #1E1314",
"p@	c #100505",
"q@	c #120B06",
"r@	c #0C0707",
"s@	c #2B1E21",
"t@	c #513D41",
"u@	c #60494E",
"v@	c #5F474D",
"w@	c #573E44",
"x@	c #4E393D",
"y@	c #4C383C",
"z@	c #362627",
"A@	c #1C0606",
"B@	c #310C09",
"C@	c #4A110B",
"D@	c #2C0D0C",
"E@	c #59444A",
"F@	c #634C52",
"G@	c #493639",
"H@	c #4E3A3E",
"I@	c #4F3A3E",
"J@	c #463236",
"K@	c #3D2B2D",
"L@	c #3C2A2C",
"M@	c #342426",
"N@	c #0C0606",
"O@	c #260605",
"P@	c #170905",
"Q@	c #211616",
"R@	c #503F44",
"S@	c #90707A",
"T@	c #8B6D75",
"U@	c #634D52",
"V@	c #4C393C",
"W@	c #412F31",
"X@	c #26191B",
"Y@	c #221617",
"Z@	c #1A0807",
"`@	c #090302",
" #	c #171111",
".#	c #B4939D",
"+#	c #A3808B",
"@#	c #896C74",
"##	c #735B61",
"$#	c #5D484C",
"%#	c #3C2B2E",
"&#	c #281B1B",
"*#	c #150A0A",
"=#	c #0A0505",
"-#	c #0E0907",
";#	c #210605",
">#	c #41250D",
",#	c #180905",
"'#	c #0F0908",
")#	c #8B7882",
"!#	c #CCAEBC",
"~#	c #BB9AA4",
"{#	c #91747C",
"]#	c #503C3F",
"^#	c #241818",
"/#	c #1E0D0B",
"(#	c #3B150D",
"_#	c #120E06",
":#	c #140F09",
"<#	c #742812",
"[#	c #301A1D",
"}#	c #7D6A74",
"|#	c #C6A9B7",
"1#	c #D1B0BD",
"2#	c #9B7E86",
"3#	c #775F64",
"4#	c #281B1C",
"5#	c #160E0E",
"6#	c #310D09",
"7#	c #31120B",
"8#	c #180C08",
"9#	c #401C1C",
"0#	c #E1C1D1",
"a#	c #D2AFBC",
"b#	c #9E7F88",
"c#	c #745C62",
"d#	c #2B1D1E",
"e#	c #130C0D",
"f#	c #0C0302",
"g#	c #0E0807",
"h#	c #806D77",
"i#	c #DFBFCF",
"j#	c #C5A4AF",
"k#	c #AD8A95",
"l#	c #886A72",
"m#	c #604A4F",
"n#	c #0F0809",
"o#	c #140B06",
"p#	c #220E09",
"q#	c #0B0704",
"r#	c #181113",
"s#	c #8A7782",
"t#	c #C6A8B6",
"u#	c #D3B0BD",
"v#	c #AC8994",
"w#	c #866870",
"x#	c #664E53",
"y#	c #3A292B",
"z#	c #291B1C",
"A#	c #0A0506",
"B#	c #150B05",
"C#	c #2B1A1D",
"D#	c #675059",
"E#	c #D3B3C2",
"F#	c #D0AFBB",
"G#	c #886A73",
"H#	c #6B5358",
"I#	c #523F42",
"J#	c #3A292C",
"K#	c #2D1F21",
"L#	c #1F1415",
"M#	c #150707",
"N#	c #110D06",
"O#	c #4F2010",
"P#	c #1A0B06",
"Q#	c #18090B",
"R#	c #654D56",
"S#	c #D7A9B9",
"T#	c #C39FAA",
"U#	c #624D51",
"V#	c #5E494D",
"W#	c #312123",
"X#	c #1B1213",
"Y#	c #130505",
"Z#	c #633416",
"`#	c #290A0A",
" $	c #6F565D",
".$	c #A3868E",
"+$	c #A98B94",
"@$	c #92767D",
"#$	c #836970",
"$$	c #765E63",
"%$	c #533F43",
"&$	c #453235",
"*$	c #170E0F",
"=$	c #100908",
"-$	c #42110A",
";$	c #3E1A13",
">$	c #433438",
",$	c #886E75",
"'$	c #A0838B",
")$	c #887075",
"!$	c #7E656B",
"~$	c #765D63",
"{$	c #695257",
"]$	c #564245",
"^$	c #473538",
"/$	c #2F2021",
"($	c #0E0809",
"_$	c #080503",
":$	c #3A2413",
"<$	c #432E19",
"[$	c #2D2318",
"}$	c #290605",
"|$	c #200605",
"1$	c #351D1F",
"2$	c #695357",
"3$	c #6F595E",
"4$	c #775F65",
"5$	c #786065",
"6$	c #685257",
"7$	c #332326",
"8$	c #271A1B",
"9$	c #170C0B",
"0$	c #250605",
"a$	c #51301C",
"b$	c #0F0804",
"c$	c #160101",
"d$	c #551111",
"e$	c #702222",
"f$	c #3F2829",
"g$	c #362728",
"h$	c #231718",
"i$	c #0D0707",
"j$	c #120B08",
"k$	c #070101",
"l$	c #190101",
"m$	c #320B07",
"n$	c #551A14",
"o$	c #6A1F1F",
"p$	c #621819",
"q$	c #4E1F1F",
"r$	c #403133",
"s$	c #4D3B3E",
"t$	c #221718",
"u$	c #130B0A",
"v$	c #150A06",
"w$	c #1A0A06",
"x$	c #100804",
"y$	c #180503",
"z$	c #33271A",
"A$	c #573C2A",
"B$	c #70211C",
"C$	c #821918",
"D$	c #6D1819",
"E$	c #451D1E",
"F$	c #412B2D",
"G$	c #3E2C2F",
"H$	c #2F1F20",
"I$	c #110A0B",
"J$	c #090503",
"K$	c #161009",
"L$	c #160D05",
"M$	c #71674F",
"N$	c #958A6B",
"O$	c #352213",
"P$	c #671B17",
"Q$	c #871C1C",
"R$	c #6E1515",
"S$	c #3C1E1F",
"T$	c #2F2223",
"U$	c #251617",
"V$	c #11090A",
"W$	c #0D0705",
"X$	c #110901",
"Y$	c #868069",
"Z$	c #B5AF92",
"`$	c #2F2415",
" %	c #2C1206",
".%	c #57140E",
"+%	c #711414",
"@%	c #371A1A",
"#%	c #261C1C",
"$%	c #231617",
"%%	c #140806",
"&%	c #110403",
"*%	c #24140C",
"=%	c #6B6553",
"-%	c #85806B",
";%	c #6D6652",
">%	c #2C2112",
",%	c #4C432E",
"'%	c #5D412E",
")%	c #511610",
"!%	c #4D1615",
"~%	c #301213",
"{%	c #140D0D",
"]%	c #120806",
"^%	c #0C0804",
"/%	c #290705",
"(%	c #2A1C14",
"_%	c #524A3C",
":%	c #ACA78D",
"<%	c #6D6654",
"[%	c #1D0902",
"}%	c #26190C",
"|%	c #94896C",
"1%	c #888064",
"2%	c #2E180B",
"3%	c #6A1210",
"4%	c #400A0B",
"5%	c #0B0504",
"6%	c #1A0D09",
"7%	c #342315",
"8%	c #100501",
"9%	c #6F6758",
"0%	c #C6BFA9",
"a%	c #1B130B",
"b%	c #0E0703",
"c%	c #23190F",
"d%	c #A49E85",
"e%	c #9A967B",
"f%	c #2F180C",
"g%	c #68120F",
"h%	c #470909",
"i%	c #150302",
"j%	c #2A0905",
"k%	c #504235",
"l%	c #706758",
"m%	c #221B13",
"n%	c #383125",
"o%	c #89836D",
"p%	c #999075",
"q%	c #665744",
"r%	c #230A05",
"s%	c #380706",
"t%	c #320A07",
"u%	c #2B1A12",
"v%	c #320B06",
"w%	c #070000",
"x%	c #4E4638",
"y%	c #DDD9BB",
"z%	c #7E735B",
"A%	c #2D1B0F",
"B%	c #1A0603",
"C%	c #56110C",
"D%	c #420D0A",
"E%	c #140302",
"F%	c #51483B",
"G%	c #D7D1B9",
"H%	c #635B4C",
"I%	c #150A03",
"J%	c #1B0F07",
"K%	c #150D09",
"L%	c #210504",
"M%	c #282118",
"N%	c #33291F",
"O%	c #190E06",
"P%	c #0A0403",
"Q%	c #100705",
"R%	c #21160D",
"      . + @ # $ # % &   * * = - ; > , ' . ) ! ~ > { ; # $ $ $ . # # $ . ) ' ] - ] ~ - ' ^ / ( @ ' % _ ]   : : * < [ } ] | } .   ",
"[   } 1 2 @ $ $ 3 4 5 6 7 / 5 8 ] , . ( , , } } , 9 0 a . $ . b 9 a / _ & > } c : [ & d 3 e 8 e f ~ # ] c < 1 : @ : ' c = ~   } ",
"-   [ c c # # # % - & & g h = : : - 3 } $ $ # # # } i ; > ( ^ 8 3 ^ ~ j 1 [ ( - 3 } < * @ 1 ] k l   . -     @ : * < [ j c !   > ",
"3 & m - } | n % 3 # # +     @ 1 1 | > # a ; 9 ! ) ] 6 $ $ , - . #   < : o p - } -     * @ @ @ : q c c |     3 | : < = )   9 & / ",
"r s m a t 9 ) ) # # . .   # * @ u 3 < } s v b ; | w 7 . $ # x #   #   @ o y ] * ' <   * < < < @ & [ c & < z h = j j c   > A B _ ",
"( ' ] % C % ) $ $ $ , . , . # < / = } ' ] ] ) b s ^ | } $ # $ $ ) > $ # | | @ * ~ : @ @ < 2 < . ! = 1 = D E & 2 1 @   ( ; ( ' ( ",
"  ( } % a ^ % F ; )   $ +   . ( e [ & )   (   _ F ) ' # $ $ . 9 s e a # 8 G * @ j j @ @ @ 2 @ c c ' j : w H 1 1 @ c ~ - ,   [   ",
". ( + I ' , . ) ; i J ( <     [ K ] < # < ) # d L ) . $ # 9 g ^ > , ^ a M 7 @ @ 1 ~ = N 1 @ @ < } j & = & 1 @ O G = [   + } ( # ",
"# > c k 8 ] < < [ ! ( } *     } 7 [ < < < ( ( p P ' ( ' ! % ] $ $ $ > ) ~ ~ < @ 2 2 ~ N 2 < @ 1 1 1 j Q = R E 8 d @ <   < < > c ",
". [ c & / c : : < c < + *     } y c < <   ( [ c S , # ] F a } $ $ $ , 3 | - 1 1 2 @ 1 T T 2 2 2 2 2 c U H H Q E V :   # # # ( [ ",
"#     [ w : * *   + ] } + } ( c y c : j c <   * m ( + [ , + ] . $ $ $ - & - : W X Y Z `  .O 2 N 2 1 [ c 1 < < [ V c , $ $ #     ",
"$ $   c t = < # $ $ ; 9 #   } 1 h - [ ] @ @ :   y ..c c c ' ! ) $ $ $ . & m +.@.#.$.%.&.*.=.j j j = ] 1 @ <   < ~ > ! , # . + } ",
") # $ # 9 . . (   . ' w ^ , + * 3 / 3 _ 1 @ @ < m s N [ } # # , # $ $ # = -.;.&.>.,.'.).!.~.{.c } c < 1 +   < < ( F ) $ $ # $ + ",
") ] > . ; - - ; ~ ( , ) ].~ #   q ^.< = j z ^.h g /.c j < # # [ (._.:.# <.[.}.|.1.2.3.4.5.6.7.8.[ 1 < . +     < [ w ] $ $ $ # + ",
"$ $ , > _ 5 > .   . ) - ( M ) ] ( ,   | M 9.q y 8 n ~ Q 1 + # 0.a.b.c.d.e.f.g.h.i.j.k.l.m.n.o.p.q.2 1 . < 2 < c & ! > ) $ $ , ; ",
"# . ( ! L i 3 7 ~ c . . # / 3 . # ' _ 3 ~ [ < x < r.t V H = . s.t.u.v.w.x.y.z.A.B.C.D.E.F.G.H.I.J.2 2 N 1 2 c : 3 ; - _ ! ) _ } ",
"  } 1 1 p I 1 T Q p = > $ ; % 0 % F . +   < : @ @ K.U 2 N U p L.M.N.O.P.Q.R.S.T.U.V.W.X.Y.Z.`. +.+2 2 < ! - ] 1 8 m ] . . | ] . ",
"@ < j 1 : ++1 @ < + . ^ - ' @+#+; # # #   * : j @ $+G < @ @ c %+&+*+=+-+;+>+D.,+'+)+!+~+{+]+^+/+(++ < - y c ] e y 2 @ < # ] , . ",
": E 9 ] ~ _+=   # ) F ! ' > . $ $ #     @ = y ] ~ D :+< c ( : <+[+}+|+1+E.2+)+3+,+4+~+5+6+7+8+9+0+& ] & [ } c M S < < @ < c ] 9 ",
"= R j c 1 y } . , a . . . $ # . $ $ < = = U Q c : | ~ < < c [ a+b+c+d+e+f+g+h+i+j+k+)+E.l+A.m+n+o+. ] ] }   < = 5 z @ : = = U Q ",
"N T 1 < = Q } ) , # # , # $ $ a ) ~ ! m ~ T 2 c : ~ c < < W p+q+r+*+s+t+u+v+w+x+y+z+A+B+C+D+E+F+G+# G ~ c < @ @ 8 ^.Q ~ m Q 2 1 ",
"j c 1 2 E j } + } . # ) } + $ $ , 8 3 ~ U c 1 @ U U 1 <   W H+I+J+K+L+M+N+O+P+Q+R+S+T+3+U+V+W+X+< + y ] : @ 2 2 H i ^.N E = @ @ ",
"V | E :+U 1 c < } } # ) [ 1 < + > ; y & y y E :+D 1 1 @ < Y+Z+`+ @.@+@M+@@#@g+E.w+$@S+%@&@*@*   } < U - = < 2 T z U h H E V V E ",
"t m i ++@ < 1 @ 1 # , > > N 1   ~ . - h S S 8 f O < c @ 2 =@-@;@>@,@+@'@)@!@~@{@;+]@^@/@(@_@  + + < c .._+} 1 2 N U V y m _ t g ",
"0 # ] 8 #     @ + + ~ . c ~ ! } p # + 1 : 1 T :@o <     @ <@[@}@|@+@1@2@3@4@5@6@7@8@9@0@a@b@* * c ] ] ..8 7 3 & 2 U z j } . } z ",
"! # } M # # . . + ~ j # < = 3 3 ] # c z z : o H = c     c c@d@e@f@g@h@i@j@5@k@l@m@n@o@p@$ + *   = G c } ( & - | Q Q Q z ( # ) . ",
"} . , ! # $ # $   G + # # ) ! ].( , . # = | , } _ | )     q@r@s@t@u@j.v@w@x@A+y@z@E+A@B@$ # < j [   . > - $ $ # j u z j [ , , . ",
"9 ~ , 9 # $ # $ p p   $ $ # , G d # . + w } > ( | h / 3 C@D@E@F@i+G@H@I@J@K@L@M@E+N@O@; $ $ . > ]   # # ' . $ $ , c c @ j ! > ! ",
"! 3 . F , . # # - } # $ $ # $ ( ^ # ) & ] $ $ 9 /.8 } P@Q@R@S@T@U@V@W@E.M@X@Y@o@Z@`@| 3 $ $ # ) F ( $ $ , # $ $   :   } ] ! ! , ",
") ; , n ) ) # . . # $ # $ # . ) n ] ; > + ) # _ F ( +  #,..#+#@###$#%#&#%.*#=#-#;## >#j $ $ . F , > } . )   ~ [ < < ~ - ) , > . ",
"  } . I ' } # , . # $ # + +   [ K = < +   ( + d w ,#'#)#!#~#{###4.]#L@^#/#(#_#:#< # b [ $ $ F 9 $ c - 9 6 d w d G ~ =   .   ) # ",
"c > } k 8 [ c   [ '   +       c 7 [ * <   ( ( p <#[#}#|#1#2#3#M+3@8@4#5#6#7#@ @   , n ) . | b ' c 1 j [ [ } - 8 d < * <   < [ c ",
"  [ c & m c 1 @ * c } * < <   ) y : * *   ( [ 8#9#v.0#a#b#c#M+3@!@d#e#f#| ] < 1 < % 0 # # . ) # [ 2 c ~ U > 3 S | @ 1 c < < ( j ",
"c     = ^.: @ @ : * [     < c c 3 c : [ :   q@g#h#i#j#k#l#m#A+8@d#n#o#p#~ ~ 1 < < F @+% ' ) # # , + , } # . ..! V 1 @ : : c <   ",
"* * @ < g ~ c : @ : - | ] c < 1 h ] [ ]   q#r#s#t#u#v#w#x#D.2+y#z#A#B#: & / j j < 1 , - ; 9 F _ ! # $ $ $ 9 a # ' ] c = j 1 * < ",
"@ 1 * c v y j 1 : ~ [ ] ] } * * m m 3 _ `@C#D#E#F#b#G#H#I#%@J#K#L#M#N#+ = 8 ++! 1 [ 2 + $ $ # a O#J m + ) { . + [ ] ] / 3 @ @ * ",
": p ^.^.v 3 : 1 1 1 * 1 c < c   q w   P#Q#R#S#T#2#3#U#V#)+/@W#X#Y#W <   ~ r.y ~ T T 2 < < + + , , } _ ^ @+_ #   [ & : : ~ j u w ",
"J Z#h h i / = 1 @ < x c : * < ' ] } ,#`# $.$+$@$#$$$4.%$&$W#*$=$8#@ * ] - = V R O O O 2 @ 2 2 N j < # g #+. < < & ~ * : 3 M 9.h ",
"~ [ < x u 5 m V p : + . c : c ] ' -$;$>$,$'$)$!$~${$]$^$K@/$($_$< : : = [ x 1 :$<$:$[$O O O O 2 1 # + _ ; # } c y ; | _ | ~ j < ",
"x < @ @ u I 1 O Q R p ] c c ] ' }$|$1$2$3$G.4$5$6$3+m@!@7$8$9$0$[ : : @   < * @ O <$a$D O T 1 @ . $ $+M 0 ' ( j n m ~ c   + c : ",
"* < j 1 1 ++1 @ 1 < c 9 ) } . b$c$d$e$f$g$~@4.'@]$T+~@E.h$i$j$<.'   < < j [ . x @ 2 T O O c } j } , d > 3 c ] M ^.2 @ < # * @ j ",
"1 ~ ! ] ~ _+= < } c c ] [ $ $ k$l$m$n$o$p$q$r$s$H@,+E.t$u$v$w$) ] + $ + c < [ c < x x < ~ ] > | d 3 - ~ [ c ( r.h < @ 1 x : Q 9 ",
"= R N c [ y c . # , ( > } # + x$y$z$A$B$C$D$E$F$6+G$H$I$J$} , . . $ . . x x # , $ # } ] & = [ } . } ] ] }   x = 5 j @ : = ] E N ",
"N T [ < z = } # # . ) } } @ : K$L$M$N$O$P$Q$R$S$T$/$U$V$W$  + # # , , $ # $ # a 3 F 3 ] * : :   . # p ~ c   @ @ 8 ^.N R m Q T 1 ",
"N < 1 1 E j . # # # . ( + # # # X$Y$Z$`$ %.%+%@%#%$%V$%%G+< c a ; a + $ $ + $ V g > > }   * *       | = [ @ 1 T H i y N E = @ 1 ",
"V V R :+U c # # , . $ # # # &%*%=%-%;%>%,%'%)%!%~%{%]%^%# + . 0 _ , # # $ $ $ ^ | $ $ $ x * *       & ~ ] < T T = U h E H V | E ",
"t 8 i k @ . # $ # , # $ . /%(%_%:%<%[%}%|%1%2%3%4%5%6%+ + . c a } } . # $ $ # % . $ $ $ $ # *     < } _ q < 2 j 2 Q y :+S S 8 e ",
"< 2 7%:$@ + $ $ $ # , ) . 8%9%0%_%a%b%c%d%e%f%g%h%i%. + , c x $ , ( . # + $ , /.. $ $ $ $ $ x * c [ ] h e ^.V & 2 R N 2 N 1 2 O ",
"O 2 O D :   $ $ $ + + a . j%k%l%m%s.n%o%p%q%r%s%t%w$. . + # + + ) + $ # ( . # t - ) ' # # $ # x = G c = m 5 ^.:+Q u%N O O N 2 O ",
"N 2 1 & b ] } +   c c - . } v%8%# w%x%y%z%A%B%B%C%& }   + + $ $ $ $ $ $ # , a F . ) ! . > ! ) , ]   c ! ! A = c [ O N N j Q T 1 ",
"j : < c & w _ ].h V [ } + # } D%0 E%F%G%H%I%J%K%j ^.m m S 9 ) # $ $ $ $ $ # } F a ] . + + . . ; [ + [ ] + F (   } c c 1 1 j : @ ",
"j @ x   & = c = Q N N + + c + . ; L%M%F%N%O%* < ] & } = U j } | F - ! - . # < [ m a #     # + ]   c ~ [ . ( < } c c } 1 1 j @ < ",
"j : < = / c * ( 1 2 2 < . + $ $ , $ P%Q%R%: @ : _ =   } [ 1 @ 2 ] ( , | ] [ 1 < c c   < @ < < c < ( |   } } 1 1 : j 1 1 1 j : @ ",
"3 j u & c } ] ( + . 2 2 T 2 $ # . $ . j | ~ j & ' < [ ] <   : 1 @ 2 < < N O j 1 @ 2 c 1 : j j ~ ~ / > } } < [ j j O T O = d = z ",
"& / q ~ = < <   @ c @ < 2 u%c # , , ] = = m ++d = : c   * * * 1 < O N c z } } } < : [ [ & ^.| w ^.h &   # + + = ] = ~ = = ~ _ q ",
"h / & j ( j *   < @ @ < # 1 ] . . . c = y ..3 = ( j 1 *   @ @ @ + < [ c < <   ( + + + x : @ * < 1 1 :+3 } + + ( c : = j = ^./ | ",
"j 2 j 7 | ~ = } < 2 j 1 } c ! ( a > ! = = 1 1 ~ 3 = u u%N 1 j 1 1 . ] - ( ' } } <   + + +     + @ @ @ | y [ + . +   ' ~ = = 2 2 ",
"< 2 @ G & & I M 9 ] U Q c [ ....; & j c } @ < j / c < < : c = [ [ c V 8 9 ; [ <   <     +       @ @ @ < & { )   } ! & [ j c @ @ ",
"= j z ~ & c . , #+0 , < @ @ c ~ = 3   # $ # # $ J = # $ $ $ # # x < c [ = 3 = <   *   < * *     1 z N c } n 8 c V a + < c Q j j ",
"j Q j z U O } , @+9 . c < : < * 1 ) # $ $ $ , . d #+, $ # . a # $ $ < < @ [ 1 @ : *   ) ( * * < * 1 j : c - C % 3 + + . < [ Q N ",
"1 1 2 T T Q c + ' F #   1 1 @ @ @ =   $ $ $ . # > 9 $ $ $ $ $ # $ $ < < @ j j : @ c c ]     < c x     @ = n ..[ & , } +   < 2 T ",
"= Q u%u%N 2 , # # 9 # + 1 T 1 <   - . + # # $ $ . / # $ $ $ $ . . $   <   [ = @ * < < = c * : c < +     0 m [ 2 [ = } + . ] = O ",
"G Q [$j c [ + $ $ ;     * @ @ @   ~ | } # # $ $ $ #+a # # . # , - ) # $   [ - < @ * @ < j < 1 c c     = ] c @ 1 U j = &   ~ R O ",
"j : @   @ @ # $ # F c @ @ *   < .   3 - $ $ $ $ $ @+F # # # . # # , $ $ # } ! } @ @ < x [ [ c < ( } } ] c 2 @ 1 [ [ + / [ 1 j @ "};
