/* XPM */
static char *exit4[] = {
/* columns rows colors chars-per-pixel */
"64 64 217 2 ",
"   c #030101",
".  c #0B0403",
"X  c #0E0905",
"o  c #0F0E08",
"O  c #130503",
"+  c #1B0605",
"@  c #130C06",
"#  c #1B0B06",
"$  c #150E09",
"%  c #1B0E09",
"&  c #141007",
"*  c #1B1007",
"=  c #16110A",
"-  c #1B130C",
";  c #1C190D",
":  c #1D1710",
">  c #1E1912",
",  c #230605",
"<  c #2B0706",
"1  c #230A06",
"2  c #2B0A07",
"3  c #230E09",
"4  c #2C0D09",
"5  c #310A07",
"6  c #380A07",
"7  c #340D09",
"8  c #3B0D09",
"9  c #23130C",
"0  c #2B130C",
"q  c #24190F",
"w  c #2C1A0D",
"e  c #33130C",
"r  c #3C130C",
"t  c #341B0D",
"y  c #3A1C0E",
"u  c #241710",
"i  c #2D1710",
"p  c #241B13",
"a  c #2B1A12",
"s  c #311710",
"d  c #3B1610",
"f  c #331A11",
"g  c #3B1910",
"h  c #2B230A",
"j  c #382B0E",
"k  c #282217",
"l  c #2C2418",
"z  c #2D2B1E",
"x  c #3A2513",
"c  c #3C371C",
"v  c #2E2C20",
"b  c #332F21",
"n  c #363325",
"m  c #3B3725",
"M  c #3D3A2B",
"N  c #430D0A",
"B  c #4B0E0B",
"V  c #540F0D",
"C  c #43130C",
"Z  c #4B140D",
"A  c #461D0E",
"S  c #4B1B0E",
"D  c #53140E",
"F  c #5B130E",
"G  c #531A0E",
"H  c #5B1F0F",
"J  c #451610",
"K  c #4A1710",
"L  c #441B12",
"P  c #4B1B11",
"I  c #551610",
"U  c #5C1710",
"Y  c #541A11",
"T  c #5C1A11",
"R  c #63140F",
"E  c #6B140F",
"W  c #63190F",
"Q  c #661710",
"!  c #6E1510",
"~  c #631A12",
"^  c #6B1B12",
"/  c #741511",
"(  c #731C12",
")  c #7B1812",
"_  c #4B230D",
"`  c #5B230F",
"'  c #492410",
"]  c #462B14",
"[  c #562512",
"{  c #5C2312",
"}  c #5B2A14",
"|  c #463B12",
" . c #52331C",
".. c #6C2312",
"X. c #672A13",
"o. c #732314",
"O. c #7C2214",
"+. c #742A14",
"@. c #653716",
"#. c #7A3417",
"$. c #463D22",
"%. c #423E2D",
"&. c #423F30",
"*. c #474114",
"=. c #4C4213",
"-. c #544717",
";. c #5B5116",
":. c #595518",
">. c #5D5419",
",. c #62541A",
"<. c #6A5B1D",
"1. c #79521C",
"2. c #6D601E",
"3. c #78691F",
"4. c #45412E",
"5. c #4B462A",
"6. c #454231",
"7. c #494431",
"8. c #4E4935",
"9. c #4E4B39",
"0. c #554C33",
"q. c #524E3A",
"w. c #55513C",
"e. c #5A553E",
"r. c #635621",
"t. c #695D22",
"y. c #795E22",
"u. c #765B37",
"i. c #6C6122",
"p. c #766523",
"a. c #756821",
"s. c #7B6D22",
"d. c #7D7123",
"f. c #797229",
"g. c #5D5740",
"h. c #5E5942",
"j. c #625C43",
"k. c #6A6449",
"l. c #6B654A",
"z. c #7B6E46",
"x. c #6E6950",
"c. c #766F52",
"v. c #7B7354",
"b. c #881B14",
"n. c #981E16",
"m. c #852216",
"M. c #852A16",
"N. c #972117",
"B. c #C1271C",
"V. c #8F451C",
"C. c #846D1D",
"Z. c #8B6E1B",
"A. c #936F17",
"S. c #9A7114",
"D. c #987217",
"F. c #AB770F",
"G. c #AC790F",
"H. c #B17A0F",
"J. c #BB7E0B",
"K. c #A57413",
"L. c #AA7711",
"P. c #A37812",
"I. c #AC7911",
"U. c #985E27",
"Y. c #876A23",
"T. c #826C21",
"R. c #827225",
"E. c #8B7225",
"W. c #8B752C",
"Q. c #967326",
"!. c #8E7735",
"~. c #A17027",
"^. c #817147",
"/. c #837B59",
"(. c #B68712",
"). c #C78509",
"_. c #D38C06",
"`. c #D78E05",
"'. c #DC9304",
"]. c #D89A07",
"[. c #C7991A",
"{. c #E39602",
"}. c #E39A03",
"|. c #EA9D00",
" X c #DCA812",
".X c #EDA500",
"XX c #E8A706",
"oX c #F2AD00",
"OX c #F4B301",
"+X c #F8BA00",
"@X c #EBB415",
"#X c #C5A833",
"$X c #FBC302",
"%X c #FFCB05",
"&X c #FECD0B",
"*X c #FACC17",
"=X c #FED31B",
"-X c #FFD518",
";X c #FED823",
":X c #FFDE2D",
">X c #EDD33B",
",X c #F1D63A",
"<X c #FFE02F",
"1X c #FFE438",
"2X c #998345",
"3X c #8C835F",
"4X c #92855C",
"5X c #AD934F",
"6X c #B6A05D",
"7X c #8B8261",
"8X c #948B67",
"9X c #A59668",
"0X c #D0B843",
"qX c #EDD643",
"wX c #F1DA42",
"eX c #FFEA45",
"rX c #FFEB49",
/* pixels */
"@ @ @ O X = .   . / r @ @ & 0 7 6 2 + 5 O , 8 e 2 ) 6 .       O . .   O 1 5 4 7 4 e 7 5 R D 3 = 5 / F 2 @ * * & $ 3 # 4 C # O @ ",
"3 @ # - ; =     Z B.m.{ S D m.^ 4 + O 1 + + # # + N V < @   O W N < D F r < # % * 3 r A Z o.^ o.#.e . 4 % $ - * = * 2 % 0 e @ # ",
"7 @ 3 % % . . . / 7 r r ( T 0 * * 7 Z #     . . . # O.6 < 1 R Q Z R e 9 - 3 1 7 Z # $ & = * 4 } #.@ O 7 @ @ = * & $ 3 9 % 8 @ 2 ",
"Z r I 7 # C / / Z . . X @ @ $ ; - C < . < 6 N 8 , 4 {     + 7 O . @ $ # ; t 7 # 7 @ @ & = = = * { % % C @ $ Z C * $ 0 , @ N r D ",
"N.b.I < Q N , , . . O O @ . & = w Z $ # b.N.W 6 C G S O   . o . @ . @ = : P 4 @ 5 $ @ = $ $ $ = r 9 % r $ 9 U 0 9 9 % @ 2 n.m.R ",
"1 5 4 / n./ ,       + O + O . $ D 0 # 5 4 4 , W b.R C #   .     1 <   . C C = & e % = = $ : $ O 8 0 ; 0 L d r : - = @ 1 6 1 5 1 ",
"@ 1 # / < R / B 6 , @   X @ O 1 o.1 r , @ 1 @ F B , 5 .     O N b.+.< . ^ y & = 9 9 = = = : = % % 5 9 * G d - - = % e 7 + @ 3 @ ",
"O 1 @ X.5 + O , 6 O.X.1 $ @ @ 3 #.4 $ . $ , . A [ , O   . N ( R < + R < ..S = = - e 0 u - = = $ # 9 r 0 r ; * p y 0 3 @ X # 1 . ",
". 2 % } Q 4 $ $ 3 8 1 # & @ @ # S 3 $ $ $ 1 1 t +.5 1 5 8 / 4       < , e e $ = : : e u : $ = - - - 9 i 0 f d ^ A = $ @ $ $ 2 % ",
"O 3 % r D % * * $ % $ X & @ @ # K % $ $ @ 1 3 % ~ + . 4 B < #       + Z C 7 - - : = - : > : : : : : % s g g i d J * @ . . . 1 3 ",
". @ @ 3 G * & & @ X 4 # X # 1 % K % * 9 % $ @ = D 1 X 3 + @ 4 O       7 r 7 % $ @ : u u l p : u : - 3 % - $ $ 3 J % +     . @ @ ",
"    @ * Q 0 $ .     6 N . @ # - T 7 3 4 = = * @ K U % % % 5 8 ,       O r I 9 9 $ - 9 i i i 9 9 9 0 4 - * $ @ $ e 2 8 + . O X # ",
", .   . N O O 1 @ O 5 G R + X @ Z D Z F - $ = $ I b.u % # . . + .     . 0 W [ r % u : : > : : % # % $ - X @ $ $ 1 B ,     .   X ",
", 4 2 O 6 7 7 6 e 1 + , ` e . @ { Y $ 0 9 p Y U ( b.% 9 $ . . 3 2   . . e +.P w - u = : > > : 3 3 - $ O X @ @ $ 3 G 4       . X ",
"    + 2 F m.2 O @ O , 7 1 .., 4 1 + @ C ..@.{ K ^ / e i - X . X 4 O O 4 e 4 C t p p p > : : : u 9 : - O $ : $ % r 8 2 ,     + 6 ",
". O 1 8 [ O.Z S e % O O . D Z O . 2 F Z e 3 $ o $ +.Q ' ] =.;.;.>.-.j j 3 $ * x ] x l p p p p : : : : u - : % * Z 6 7 F 8 , F # ",
"@ # - - t X.; p i t 0 2   6 / V / B O X @ $ * = = @.-.i.s.f.R.D.Z.d.s.3.,.=.; = l x  ._ p ; - - X : : $ 8 7 4 - Q Y 4 O O C 4 O ",
"= % 9 - * [ - $ $ X O Q 7 2 b.! 6 . . . @ @ * 9 =.p.Y.d.R.T.A.XX[.3.d.d.R.3.2.| = : ; p p 3 # 9 O X $ 7 K % 4 o.K : = = . 4 + O ",
"* d N 4 7 X.0 @ . , B 8 5 2 O     . @ @ - 0 [ ,.T.E.E.d.K.Z.F.oX@XC.d.d.C.D.d.s.=.; & @ 5 0 4 C P r 4 r 3 # % ..~ $ $ = $ % 4 N ",
"0 f 9 % - K # O + < O O O   . O     $ 0 0 j i.D.(.Z.d.Z.).P.D.XX].3.d.d.C.G.C.R.d.<.q 4 r 0 3 # O O 4 4 # @ $ 0 m.u * * 0 0 s i ",
"u > - $ 0 i # , + . . + .     < 1 e 8 I y t.f.(. XZ.f.P.XX[.C.J.P.C.Z.d.Z.J.A.s.d.s.=.4 & * * @ . . y e % $ = = ^ Y i e I i : - ",
"9 % - : d 9 # X # O . , # X     + ^ Z e -.d.f.I._.Y.f.F.@X XC.Z.C.S.L.d.H.'.K.Z.C.d.p.h & & & & $ X K 4 % = : : g O.Y u d 0 = = ",
"J C d P i - % $ # # . , 3 - $ X < 6 P ] Y.W.R.D.K.d.f.L.@XXXC.Z.S.I.).P.'.|.J.K.Z.E.E.,.& & & @ % $ s 7 0 $ : : p 0 U g d J J d ",
"Q I O.[ = $ - = - . + 2 2 u * @ e O 7 1.Q.Q.Q.~.R.T.s.D.}._.C.L.`.).'.'.oXoX`.(.D.E.d.3.| & @ X X $ % U X.+ - : u f J K I U Q ( ",
"V . 4 ^ . @ @ * X X e O % e 8 # t . h 3.d.R.d.E.Z.C.F.Z.J.I.f.H.{.'.|..X$XOX'.`.F.d.d.d.;.@ & & % 4 4 T Q S Z r : s q 9 # O # q ",
"8 . # ... . O O X e 9 . $ 0 Z Z 4 . =.d.d.R.d.E.H.A._.F.C.A.I.'..X|.OX.X$X=X{.{.).C.s.d.3.h & @ 0 y % # 1 r 7 C i i i u 1 . , O ",
"# O + 8 .   .   @ y X . . , 8 T 1 # ;.d.R.E.d.D.'._.{.'.D.F.}.+X$XoX&X$X&X=X}..X_.C.R.C.3.*.@ 9 3 @ O < 7     . 9 w u 9 3 + + O ",
"N e + N .   .   t t $     . # y A * <.d.E.s.C.J.|..X.X|.).'.+X-X=X+X;X&X;X;XoXoX_.C.R.R.d.;.O 2 4 @ . . 7 O     + % % = 9 r < 8 ",
"8 Z O B + O . . 7 # .     .   1 R h 3.E.R.d.C._.oX$X+XOX'.oX%X:X&X$X<X-X:X:X+X.XH.3.E.E.d.;.. , B 1     + .     @ * @ # 4 8 8 + ",
", 6 + / , , . O O .   .   . O , E ] 3.R.s.d.C._.OX=X;X*XoX$X-X1X&X&XeX:X1X:X*X'.D.f.E.d.3.;.O B + < # O 1 @ e 3 $ $ e 7 , + < O ",
"@ # O X.5 # . + O .   . X X @ 3 M.j 3.d.d.C.d.I.'.*X1X1X*X%X<XeX-X;XrXrXeX1X@XJ.T.d.Q.T.d.;.B N   % 7 N ` S G A y e 0 @ O @ , . ",
"% 2 # } Q 9 % @ 3 5 @ X @ @ @ % _ 1 >.d.d.d.3.W.5XQ.#X0X>X,XwXwXwX,XwXqX#X[.5X5Xp.3.Q.d.C.<.~ 5 % * 9 9 3 # 7 ^ A $ & $ @ $ 3 % ",
"@ 3 % r I % - = & % # & $ $ @ , P * ;.d.f.p.f.9X3X3X8X9X2X!.2X5X6X6X2X!.2Xz.7X8X^.u.Y.d.C.;., . 3 ; # e s < Z ~ C = - % $ $ 1 9 ",
"% @ @ 0 Y * = = * & 3 @ @ $ % % Z # =.d.d.r.j.x.3X8Xx.v.k.j./.8X7Xv.l.4X9Xx.j.x.j.w.U.Q.T.*.. . + @ + # . O U 8 J - = * * % $ @ ",
"& & = $ ( e % * = * 7 C 4 % $ - T 4 w <.d.p.5.e.x.c.h.h.c.v.j.w.9.e./.4X/.v.l.w.w.8.a.R.s._ B F 8 .       N < . 5 4 % 0 9 - = $ ",
"= - @ % N.P 9 - * e 3 4 4 # & & Y F Z 1.d.f.2.5.0.q.9.h.j.j.h.e.e.9.h.e.j.e.9.7.5.i.f.d.;.  . < _ X.I X , ) O X 3 4 4 D Z = = @ ",
"* w Y Y N.Z * - - - & - * $ % $ { G @ h 2.Q.d.s.,.u.c.k.q.M M w.l.q.%.M 6.6.$.t.f.R.R.a.j X X + + # F Q b.F . @ 3 r * * e 9 w G ",
"X.@.T T O.D 0 - = $ o % # = $ 5 4 # # B V.T.d.d.Q.Q.0.g.6.h.x.&.6.M n M 4.c p.R.R.f.f.-.= : ; p 9 $ . ( E O $ $ r e & * Z ..@.T ",
"e 3 $ o w m.I J t * X O % * % 4 6 Z ` W F =.3.R.E.R.y.$.M k.e.M n M M n m i.f.R.W.R.i.k p p p : - . @ F 6 . # % K 6 C F C e 9 = ",
"o $ = = w X.- p i f t 4 % % 4 5 < 1 #     1 -.3.d.E.R.t.*.7.M k.l.4.4.c <.d.d.R.s.r. .L p : - = O   L ..V 5 1 9 ! I e % @ X % * ",
"= $ 9 - - [ % $ - $ % N , # O X . O X   + +   *.3.E.R.d.d.c M v.e.n c f.d.R.d.2.*.: : p p % # 9 # + L 2 Z % 4 ..Y : = $ . & = 9 ",
"* e 8 4 e X.0 $ # % % 4 3       X $ @ . , < 8 4 ] r.Y.d.d.5.7.8.4.v c d.s.a.,.h $ o o $ e 4 2 C A Z 7 e 3 % 1 +.U $ = * o * i N ",
"0 f p % 3 K % O . + 1 2 # . X X @ @ & 0 4 i e * % C ] ;.:.5.q.m M M c :.*.h . #   . % 4 r 0 3 # O # 4 4 # @ o 0 m.9 = * 0 4 d p ",
"p : 3 $ p 0 # . . O , # # = % = @ * t Z e : - % % f % $ > 7.7.e.w.8.v ; .   . < Z B Z 4 & * * @ O . t e % @ = = ^ Y p f I i : - ",
"u $ - - r 9 O . . . O 1 X . . . @ 4 0 s g = ; $ i i $ % m 4.w.9.4.M n z   o   C ( < 2 # @ = & @ @ @ C 0 3 = - > g O.K u d 0 = - ",
"J J f P i % . . + O   . . . O , + 4 5 d J C d L L - - q.h.4./.l.9.n M w.z     R C       o @ & @ @ @ r e 4 $ : p 0 s T d g J C d ",
"Q ^ O.} = O .   . + .   O < , 8 2 6 J I ~ ^ ^ #.p ; b q.m 4.w.7.%.m %.q.M z ; ! O         . & @ @ @ # F { $ : 9 : i K P ~ ~ Q o.",
"$ : x x = X       . + , O O   O . . X # : % p ] > k z v z z z z z z z z v z k ( O           o & % 9 4 U o.Y J r : f u : u ; : p ",
"p : p L * @       X X < O 5 N ,       % q : : x 0 * # $ $ X $ $ 3 $ X X 3 % . ~ 7 , 4 . .   . $ 0 y % 0 I m.Y P i a u p p u : p ",
"u : - r W 4 # X @ % % 7 O # 8 O .     $ 0 - - 9 Q r # @ X X             . + < B O , 8 O < 8 , + 4 @ % 8 8 n.0 % 3 p 9 p 9 i : - ",
"9 * $ % r G F H U J 9 # X . # N V + . @ 9 * * $ 9 Y I I ~ N , .           . # B < 4 O X X O O 6 3 X 3 4 X B 1 @ # % % - - 9 * = ",
"9 $ o @ r 0 % 0 a 9 u X X % X O 6 ,   @ 9 * & $ 4 r # 0 s 9 # C B 7 8 7 O . $ 3 D < . @ @ . X 4 @ % e 3 O 1 $ # % % # - - 9 = = ",
"9 * $ 0 D % & 1 - : : $ O X     +   . $ q * = % F 0 @ # 3 - = : 4 1 + C 4 3 - $ % * $ $ = $ $ % $ 1 C @ # # - - * 9 - - - 9 * = ",
"K 9 w r % # 4 1 X O : : : :   . O   O 9 C e 9 r 5 $ 3 4 $ @ * - & : $ $ 9 p 9 - * : % - * 9 9 e e D 2 # # = 3 9 9 p : p 0 A 0 u ",
"r D { e 0 $ $ @ = % = $ : a % . + + 4 0 0 I [ A 0 % % @ & & & - $ p u % p # # # $ * 3 3 r Y C G Y U r @ . X X 0 4 0 e 0 0 e F { ",
"U I r 9 1 9 $ @ $ = = $ . - 4 O O O % 0 K U Z 0 1 9 - & @ = = = X $ 3 % $ $ @ 1 X X X o * = & $ - - P Z # X X 1 * * 0 9 0 Y D C ",
"9 : 9 S C e 0 # $ : 9 - # % 8 1 < < 8 0 0 ; - e Z 0 w i u - 9 - - O 4 7 3 5 # # $ @ X X X @ @ X = = = C K 3 X O X $ 5 e 0 0 : : ",
"$ : = y r r X...N 4 s i % 3 U U 6 r 9 % # $ $ 9 I % $ $ * % 0 3 3 % J Q N 6 3 $ @ $ @ @ X @ @ @ = = = $ r ) , $ # 8 r 3 9 % = = ",
"0 9 u e r % O + Q V + $ = = % e 0 Z @ .   . .   X.0 .       . . o $ % 3 0 Z 0 $ @ & @ $ & & @ @ - q u % # ! Q * J < X $ % i 9 9 ",
"9 i 9 u f p # + b.B O % $ * $ @ - , .       + O A Q +   . O < .     $ $ = 3 - = * & @ , 1 & & $ & - 9 % % 7 n./ Z X X O $ 3 i u ",
"- - : : : i * @ < B . @ - ; $ * = 0 @       O . 2 N           .     $ $ = 9 9 * = % % 4 @ @ $ % o @ @ = 0 ! I 3 r + # X @ $ : : ",
"0 i a a u : + . . N . X - : - $ @ 7 O X . .     O D .         O O   @ $ @ 3 0 = & $ $ 0 % & * % $ X @ @ V I 3 u 3 0 # X O 4 0 p ",
"y i l 9 % 3 X     6 @ @ & = = = @ e C # . .       ! < . . O . + 7 , .   @ 3 7 $ = & = $ 9 $ - % % @ @ 0 4 % = - s 9 0 r $ e f p ",
"9 * = $ = = .   . B % = = $ $ $ O @ Z 7           b.B . . . O . . +     . # 8 # = = $ o 3 3 % $ 1 # # 4 % : = - 3 3 X D 3 - 9 = "
};
