/* XPM */
static char * player5_xpm[] = {
"64 64 110 2",
"  	c #130C06",
". 	c #130503",
"+ 	c #0E0905",
"@ 	c #16110A",
"# 	c #0B0403",
"$ 	c #030101",
"% 	c #741511",
"& 	c #3C130C",
"* 	c #141007",
"= 	c #2B130C",
"- 	c #340D09",
"; 	c #380A07",
"> 	c #2B0A07",
", 	c #1B0605",
"' 	c #310A07",
") 	c #230605",
"! 	c #3B0D09",
"~ 	c #33130C",
"{ 	c #7A1612",
"] 	c #2C0D09",
"^ 	c #63140F",
"/ 	c #53140E",
"( 	c #230A06",
"_ 	c #5B130E",
": 	c #1B1007",
"< 	c #150E09",
"[ 	c #230E09",
"} 	c #1B0B06",
"| 	c #43130C",
"1 	c #1B130C",
"2 	c #1D1710",
"3 	c #4B140D",
"4 	c #C1271C",
"5 	c #852216",
"6 	c #5E230F",
"7 	c #4B1B0E",
"8 	c #6B1B12",
"9 	c #430D0A",
"0 	c #540F0D",
"a 	c #2B0706",
"b 	c #63190F",
"c 	c #1B0E09",
"d 	c #461D0E",
"e 	c #732314",
"f 	c #7A3017",
"g 	c #731C12",
"h 	c #5C1A11",
"i 	c #7C2214",
"j 	c #23130C",
"k 	c #5D2B14",
"l 	c #7B3D17",
"m 	c #551610",
"n 	c #6E1510",
"o 	c #1B180F",
"p 	c #341B0D",
"q 	c #5C2312",
"r 	c #9F2218",
"s 	c #841C14",
"t 	c #661710",
"u 	c #2C1A0D",
"v 	c #942117",
"w 	c #531A0E",
"x 	c #0F0E08",
"y 	c #4A1710",
"z 	c #24190F",
"A 	c #981F17",
"B 	c #8C2216",
"C 	c #971D16",
"D 	c #441B12",
"E 	c #3B1610",
"F 	c #4B0E0B",
"G 	c #3A1C0E",
"H 	c #3B1910",
"I 	c #6C2C13",
"J 	c #652C14",
"K 	c #822E16",
"L 	c #54220F",
"M 	c #6C2312",
"N 	c #241710",
"O 	c #241B13",
"P 	c #7C2C16",
"Q 	c #2D1710",
"R 	c #331A11",
"S 	c #631A12",
"T 	c #1E1912",
"U 	c #311710",
"V 	c #451610",
"W 	c #483920",
"X 	c #2D2318",
"Y 	c #A07878",
"Z 	c #82622F",
"` 	c #9B8054",
" .	c #562512",
"..	c #5B1F0F",
"+.	c #541A11",
"@.	c #000000",
"#.	c #2C210F",
"$.	c #3A2413",
"%.	c #51301C",
"&.	c #452210",
"*.	c #8C1A14",
"=.	c #6B140F",
"-.	c #632211",
";.	c #862E2E",
">.	c #4B1B11",
",.	c #5C1710",
"'.	c #633416",
").	c #DBCCCC",
"!.	c #342315",
"~.	c #2B1A12",
"      . + @ # $ # % &   * * = - ; > , ' . ) ! ~ > { ; # $ $ $ . # # $ . ) ' ] - ] ~ - ' ^ / ( @ ' % _ ]   : : * < [ } ] | } .   ",
"[   } 1 2 @ $ $ 3 4 5 6 7 / 5 8 ] , . ( , , } } , 9 0 a . $ . b 9 a / _ & > } c : [ & d 3 e 8 e f ~ # ] c < 1 : @ : ' c = ~   } ",
"-   [ c c # # # % - & & g h = : : - 3 } $ $ # # # } i ; > ( ^ 8 3 ^ ~ j 1 [ ( - 3 } < * @ 1 ] k l   . -     @ : * < [ j c !   > ",
"3 & m - } | n % 3 # # +     @ 1 1 | > # a ; 9 ! ) ] 6 $ $ , - . #   < : o p - } -     * @ @ @ : q c c |     3 | : < = )   9 & / ",
"r s m a t 9 ) ) # # . .   # * @ u 3 < } s v b ; | w 7 . $ # x #   #   @ o y ] * ' <   * < < < @ & [ c & < z h = j j c   > A B _ ",
"( ' ] % C % ) $ $ $ , . , . # < / = } ' ] ] ) b s ^ | } $ # $ $ ) > $ # | | @ * ~ : @ @ < 2 < . ! = 1 = D E & 2 1 @   ( ; ( ' ( ",
"  ( } % a ^ % F ; )   $ +   . ( e [ & )   (   _ F ) ' # $ $ . 9 s e a # 8 G * @ j j @ @ @ 2 @ c c ' j : w H 1 1 @ c ~ - ,   [   ",
". ( + I ' , . ) ; i J ( <     [ K ] < # < ) # d L ) . $ # 9 g ^ > , ^ a M 7 @ @ 1 ~ = N 1 @ @ < } j & = & 1 @ O G = [   + } ( # ",
"# > c k 8 ] < < [ ! ( } *     } 7 [ < < < ( ( p P ' ( ' ! % ] $ $ $ > ) ~ ~ < @ 2 2 ~ N 2 < @ 1 1 1 j Q = R E 8 d @ <   < < > c ",
". [ c & / c : : < c < + *     } y c < <   ( [ c S , # ] F a } $ $ $ , 3 | - 1 1 2 @ 1 T T 2 2 2 2 2 c U H H Q E V :   # # # ( [ ",
"#     [ w : * *   + ] } + } ( c y c : j c <   * m ( W W W W W W W W W - & - : <   2 N N X O 2 N 2 1 [ c 1 < < [ V c , $ $ #     ",
"$ $   c t = < # $ $ ; 9 #   } 1 h - [ ] @ @ :   y W W Y W W Z Z Z Z W W W m j j < 1 j Q Q Q j j j = ] 1 @ <   < ~ > ! , # . + } ",
") # $ # 9 . . (   . ' w ^ , + * 3 / 3 _ 1 @ @ W W ` ` W W Z Z Z Z Z Z Z W W  .& c N 2 2 T 2 2 c } c < 1 +   < < ( F ) $ $ # $ + ",
") ] > . ; - - ; ~ ( , ) ..~ #   q +.< @.j z W W ` ` ` W Z Z Z Z Z Z Z Z Z W W u 1 N @ o T T 2 [ [ 1 < . +     < [ w ] $ $ $ # + ",
"$ $ , > _ 5 > .   . ) - ( M ) ] ( ,   @.@.W @.@.` W W Z Z Z Z Z Z Z Z Z #.#.#.W O O O T 2 2 2 N j 2 1 . < 2 < c & ! > ) $ $ , ; ",
"# . ( ! L i 3 7 ~ c . . # / 3 . # ' _ 3 @.@.@.` W W Z Z Z #.Z Z #.Z Z #.#.#.#.W W $.X O O O O 2 2 2 2 N 1 2 c : 3 ; - _ ! ) _ } ",
"  } 1 1 p I 1 T Q p = > $ ; % 0 % F . + @.@.#.W W #.Z Z #.Z Z Z #.Z #.#.#.#.#.#.@.@.%.&.O 2 1 1 + 2 2 < ! - ] 1 8 m ] . . | ] . ",
"@ < j 1 :  .1 @ < + . ^ - ' *.=.; @.@.@.@.#.W @.#.#.Z Z #.Z Z Z #.@.@.#.@.#.@.#.@.@.@.@.O [ } j . + < - y c ] e y 2 @ < # ] , . ",
": E 9 ] ~ -.=   # ) F ! ' > . $ @.# W @.@.@.@.@.#.@.@.#.@.Z Z #.#.#.@.@.@.@.@.@.#.@.@.  ' = ] | y & ] & [ } c M S < < @ < c ] 9 ",
"= R j c 1 y } . , a . . . $ # . $ @.#.@.@.@.#.` #.@.@.#.Z @.@.#.#.;.#.@.@.@.@.@.@.Y @.] & = [ } . . ] ] }   < = 5 z @ : = = U Q ",
"N T 1 < = Q } ) , # # , # $ @.@.@.#.#.@.W #.` ` #.@.@.#.#.@.@.@.#.;.;.#.` Y @.#.@.#.@.@.* : :   + # G ~ c < @ @ 8 +.Q ~ m Q 2 1 ",
"j c 1 2 E j } + } . # ) } + $ @.#.#.W W #.` ` #.#.@.#.#.#.@.#.@.#.#.;.#.W ` Y @.#.@.Y W W @.@.< < + y ] : @ 2 2 H i +.N E = @ @ ",
"V | E >.U 1 c < } } # ) [ @.@.W #.` W ` #.` #.#.@.#.#.#.@.@.@.#.@.#.#.#.#.W Y Y @.@.@.Z W @.@.@.@.< U - = < 2 T z U h H E V V E ",
"t m i  .@ < 1 @ 1 # , > @.@.1 W #.W ` #.` W #.#.@.@.@.@.@.@.#.#.#.#.#.#.#.#.W Y @.@.@.@.Z W @.+ @.@.c ,.-.} 1 2 N U V y m _ t g ",
"0 #.@.@.#     @ + + ~ . c ~ W #.#.` ` #.@.#.#.@.Z @.@.@.@.@.@.@.#.#.#.#.#.#.#.W Y #.#.@.Z W W @.c ] ] ,.8 7 3 & 2 U z j } . } z ",
"! #.@.@.@.@.. . + ~ j # < W #.#.W ` #.W @.#.#.Z Z Z @.@.@.Z Z @.#.@.@.@.#.#.#.Y Y #.#.#.Z Z W @.= G c } ( & - | Q Q Q z ( # ) . ",
"} . #.W @.@.@.$   G + # # W #.W ` ` #.#.@.#.#.Z Z Z @.@.Z Z Z @.#.@.@.#.@.#.#.#.W W #.#.#.Z Z @.@.  . > - $ $ # j u z j [ , , . ",
"9 ~ #.W Y @.@.@.p p   $ W #.#.W ` W @.Z @.#.Z Z Z Z @.@.Z Z Z @.#.@.Z #.@.` #.#.Y W #.#.#.#.Z W @.  # # ' . $ $ , c c @ j ! > ! ",
"! 3 #.#.Y @.@.@.- } # $ W #.Z Z W W @.Z @.Z Z Z @.@.@.@.#.Z Z @.#.@.Z Z @.@.@.#.#.W W #.#.#.Z Z @.@.$ $ , # $ @.@.@.  } ] ! ! , ",
") ; , #.Y Y Y @.@.# $ # W #.Z W W Z Z Z Z Z Z @.@.@.#.#.#.Z Z @.@.@.Z Z @.@.@.@.#.#.W W #.#.#.Z W @.} . )   @.@.W @.~ - ) , > . ",
"  } . #.W Y Y Y @.@.W W W Z Z W Z Z Z Z Z @.@.@.#.#.Y W #.Z Z Z @.#.Z Z @.@.` @.#.#.Y W Y #.#.@.Z @.@.9 6 @.@.W W @.=   .   ) # ",
"c > } k W Y Y Y Y @.W W Z Z Z W Z Z Z @.@.#.#.#.W Y Y W #.Z Z Z Z Z Z Z Z Z #.` @.@.#.W W @.Z @.Z W @.[ @.@.W W W @.* <   < [ c ",
"  [ c W W W Y Y W W W Z Z Z Z Z Z Z Z @.#.#.W W Y Y Y W #.Z Z #.Z Z Z Z Z Z #.#.Z @.#.#.W @.@.@.Z Z @.@.@.W W W W @.1 @.W < ( j ",
"c     W W W W #.#.#.Z Z Z Z Z Z Z Z Z @.W W W Y ` Y Y #.#.Z Z #.#.Z #.#.#.Z #.#.Z @.@.#.#.@.@.@.Z Z W @.W W W W W @.@.@.@.c <   ",
"* * @ < W #.#.#.Z #.#.#.#.#.Z Z Z Z Z #.#.Y Y Y Y Y W #.W Z Z #.#.#.#.#.#.#.#.#.Z Z @.@.#.@.@.@.Z Z Z W @.W W W W @.W Z @.1 * < ",
"@ 1 * c @.#.#.#.Z #.Z Z @.@.Z Z Z Z Z #.#.#.` Y Y W W W Z #.#.#.#.#.#.#.#.#.#.` #.Z Z @.@.@.Z Z Z Z Z Z @.W W W @.W Z Z @.@.@ * ",
": p #.#.@.#.@.#.Z #.Z Z @.@.Z Z Z W ;.W #.W @.@.Y W W Z Z #.#.Z #.#.#.#.#.Z #.` #.Z Z Z @.@.Z Z Z Z Z Z @.@.W @.@.Z Z Z #.@.u w ",
"J '.#.@.@.#.@.Z @.Z @.@.@.Z Z @.@.;.;.W #.#.#.@.#.W Z Z Z Z #.Z #.#.#.#.#.Z #.#.#.Z Z Z Z @.Z Z Z #.Z W W @.@.@.W Z Z Z #.@.@.h ",
"~ #.@.@.@.@.@.@.@.@.@.@.@.W W W #.#.#.@.@.@.#.@.#.W Z Z Z W Z Z Z Z #.#.#.Z #.#.#.Z Z Z W #.Z Z Z #.W W W W @.W #.Z Z Z @.~ @.@.",
"x @.@.@.@.@.@.Y #.).@.@.` W W ` @.@.).@.@.@.@.#.@.Z Z Z Z W #.Z Z Z Z #.#.Z Z Z Z Z Z Z W #.Z Z Z #.#.W W @.W W #.Z Z #.@.+ c : ",
"* @.@.@.@.@.@.Y ` @.@.` ` W W ` ` Y @.@.Y Y @.@.@.@.Z Z Z W W #.Z Z Z Z #.Z Z Z Z Z #.Z #.#.Z Z #.#.#.@.@.W W #.Z Z Z #.@.* @ j ",
"1 ~ @.@.@.@.` Y Y ` ` ` W @.@.` ` Y Y Y Y Y @.@.@.@.Z Z Z Z W @.Z Z Z Z Z Z Z Z Z #.#.W #.Z Z Z #.#.@.@.W #.#.#.Z Z #.@.@.: Q 9 ",
"= R @.c [ @.` ` W W #.#.@.@.@.@.#.` Y Y Y ` @.@.Z Z W Z Z Z W @.#.Z Z Z Z Z Z Z Z #.` #.Z Z Z Z #.@.@.W #.#.Z Z Z Z #.@.= ] E N ",
"N T @.< @.@.W #.#.#.#.#.@.@.@.@.#.#.` ` Y ` W @.Z Z W Z Z Z Z @.@.#.Z Z Z Z Z #.#.#.@.#.Z Z Z #.#.@.W #.#.Z Z Z Z Z #.@.@.Q T 1 ",
"N < @.1 @.W #.#.#.#.#.@.@.@.#.@.#.#.#.#.` W @.@.Z Z @.Z Z Z Z W @.#.#.Z Z #.#.#.W @.@.#.Z Z Z #.@.@.W Z Z Z Z Z Z Z #.W @.= @ 1 ",
"V V R >.@.W #.#.#.;.;.@.#.#.#.@.@.#.#.#.W @.@.Z Z W @.Z Z Z Z @.@.W #.Z #.#.W W #.@.@.#.Z Z #.@.@.W W Z Z Z Z Z Z Z #.W @.V | E ",
"t 8 i k @.@.#.#.#.W @.@.#.#.#.#.@.@.@.#.#.@.Z Z Z W @.Z Z Z Z W W W #.#.#.W #.W @.@.#.#.Z Z #.@.#.W Z Z Z Z Z @.Z Z #.@.S S 8 e ",
"< 2 !.$.@.@.@.#.#.@.@.Y Y Y Y Y Y Y @.#.#.@.Z Z Z @.@.Z Z Z W W #.W #.#.W W #.@.@.@.#.Z Z #.#.#.W Z Z Z Z Z Z @.@.Z #.@.N 1 2 O ",
"O 2 O D : @.@.@.;.@.@.W Y Y Y W @.#.@.@.#.@.Z Z W @.Z Z Z Z W @.#.#.W #.W @.@.@.@.#.Z Z Z #.#.W Z Z Z Z Z Z Z Z @.Z #.@.O N 2 O ",
"N 2 1 & b @.#.@.;.#.@.W #.W #.#.@.@.@.@.W #.W @.@.@.Z Z Z W $ @.W #.@.#.W @.@.@.@.#.Z Z #.#.#.W Z Z Z Z Z @.Z Z @.Z #.@.j Q T 1 ",
"j : < c & @._ @.;.#.@.#.@.W @.#.0 @.@.@.@.@.@.@.Z Z Z Z W W ) @.W #.@.#.W @.@.@.#.Z Z Z #.#.W Z Z Z Z Z W @.Z Z @.Z #.#.@.@.: @ ",
"j @ x   & @.@.= ;.#.N #.@.W + @.; #.W @.#.@.@.@.@.Z Z W W j } @.F #.@.#.. @.@.#.#.Z Z Z #.#.W Z Z Z Z Z @.@.Z Z @.@.Z #.W @.@ < ",
"j : < = / c @.( ;.;.2 < @.+ $ @., #.W @.#.@.@.@.@.Z Z Z W 1 @ @.] #.@.@.] @.@.@.Z Z Z Z Z Z Z Z Z Z Z W @.W Z Z Z @.Z #.#.j @.@ ",
"3 j u & c } ] ( + . ;.2 T 2 $ # #.#.#.#.@.@.@.& @.Z Z W #.  : @.@ 2 < @.N @.@.#.Z Z Z Z Z Z Z Z Z Z W W @.@.Z Z Z @.Z #.#.W = z ",
"& / q ~ = < <   ;.c ;.< 2 ~.c #.#.#.#.@.@.@. .d @.#.Z W #.* * @.< O @.@.z } @.#.Z Z Z Z Z Z Z Z Z @.@.W @.@.Z Z Z @.Z #.#.W _ q ",
"h / & j ( j *   ;.@ @ < # 1 #.#.#.#.#.@.@.W 3 = @.#.Z W #.@ @ @ + < @.c @.@.@.#.Z Z Z Z Z Z Z Z W @.W W @.W @.Z Z @.Z Z #.W / | ",
"j 2 j 7 | ~ = } < 2 j 1 } c #.W #.#.@.@.@.1 1 ~ @.#.#.#.#.1 j 1 1 . ] - @.' W @.#.Z Z Z Z Z @.@.@.@.W W W W @.Z Z Z Z Z #.W @.2 ",
"< 2 @ G & & W W W W U Q c [ #.W #.@.@.@.} @ < j @.#.#.#.#.#.= [ [ c V 8 @.; W @.#.#.#.#.#.@.@.  @.@.W W W @.@.Z Z Z Z Z #.W @.@.",
"= j z ~ & c @.@.@.@., < @ @ #.W #.@.@.# $ # # $ #.#.Z W #.#.#.# x < c [ = 3 = @.  *   < * * @.@.@.W W @.@.@.Z Z Z Z Z Z #.#.W @.",
"j Q j z U @.@.#.#.W @.@.@.@.@.@.@.@.#.$ #.#.#.@.@.Z Z W ;.#.@.#.$ $ < < @ [ 1 @ : *   ) @.@.@.W W W W @.@.W Z #.W Z Z Z #.#.W N ",
"1 1 2 T @.@.#.#.#.@.@.W @.@.#.#.@.@.  #.#.W @.@.;.@.Z @.@.W @.@.@.@.< < @ j j : @ c @.@.@.W W W W @.@.@.#.W #.#.;.Z #.#.#.#.W T ",
"= Q ~.~.@.#.#.W #.@.#.#.@.#.#.#.@.- #.#.@.@.@.#.W @.Z Z @.#.#.#.W @.@.<   [ = @ * @.@.W W W W @.@.@.#.#.#.#.#.W ;.W #.#.#.#.W O ",
"G Q X j @.#.W $ @.@.#.#.@.@.#.#.@.~ #.#.@.#.$ @.@.@.Z Z @.@.W , - W @.@.  [ - < @.W W W W W @.@.#.#.#.;.;.#.W ;.;.W #.& W W W O ",
"j : @   W W # $ @.#.#.#.#.@.#.#.#.  #.#.#.$ $ @.#.#.#.#.#.@.W W # W W @.# } ! } @.W W W W @.W #.#.#.#.;.#.#.W W W #.W W [ 1 j @ "};
