/* XPM */
static char *wall3[] = {
/* columns rows colors chars-per-pixel */
"64 64 5 1 ",
"  c #2F2E2F",
". c #3E2F5A",
"X c #564064",
"o c #85578E",
"O c #BE9BB0",
/* pixels */
"                                                                ",
"                                                                ",
"OOOOOOOOOOOOOOOOOOOOOOOOOOoo  ooOOOOOOOOOOOOOOOOOOOOOOOOoo  ooOO",
"OOOOOOOOOOOOOOOOOOOOOOOOOOoo  ooOOOOOOOOOOOOOOOOOOOOOOOOoo  ooOO",
"ooooooooXXooooooXXooooooooOO  OOooooooooooooooooooooooooOO  OOoo",
"ooooooooXXooooooXXooooooooOO  OOooooooooooooooooooooooooOO  OOoo",
"XXXXooXXXXXXooXXXXXXXXXXXXoo  ooXXXXooXXXXXXXXooXXXXXXoooo  oooo",
"XXXXooXXXXXXooXXXXXXXXXXXXoo  ooXXXXooXXXXXXXXooXXXXXXoooo  oooo",
"..XXXXXXXXXXXXXXXXXXXX..XXXX  XXXXXXXXXXXX..XXXXXXXX....oo  oo..",
"..XXXXXXXXXXXXXXXXXXXX..XXXX  XXXXXXXXXXXX..XXXXXXXX....oo  oo..",
"........XXXX................  ............................  ....",
"........XXXX................  ............................  ....",
"..........................      ........................      ..",
"..........................      ........................      ..",
"                                                                ",
"                                                                ",
"oooooooooo      oooooooooooooooooooooo      oooooooooooooooooooo",
"oooooooooo      oooooooooooooooooooooo      oooooooooooooooooooo",
"XXoooooooooo  ooooooooooooXXXXoooooooooo  ooooooooooooooooooooXX",
"XXoooooooooo  ooooooooooooXXXXoooooooooo  ooooooooooooooooooooXX",
"XXXXooXXoooo  ooooXXooXXXXXXXXXXooXXoooo  ooooXXXXooXXXXXXooXXXX",
"XXXXooXXoooo  ooooXXooXXXXXXXXXXooXXoooo  ooooXXXXooXXXXXXooXXXX",
"....XXXX..oo  oo..XXXXXXXX....XXXXXX..oo  oo..XXXXXXXX..XXXXXX..",
"....XXXX..oo  oo..XXXXXXXX....XXXXXX..oo  oo..XXXXXXXX..XXXXXX..",
"XXXXXX......  ......XXXX....XXXXXX......  ......XXXX......XXXXXX",
"XXXXXX......  ......XXXX....XXXXXX......  ......XXXX......XXXXXX",
"XXXX........  ..........................  ......................",
"XXXX........  ..........................  ......................",
"..........      ......................      ....................",
"..........      ......................      ....................",
"                                                                ",
"                                                                ",
"oooooooooooooooooo      oooooooooooooooooooooooooooo      oooooo",
"oooooooooooooooooo      oooooooooooooooooooooooooooo      oooooo",
"ooooXXoooooooooooooo  ooooooXXooooooooooooooooXXoooooo  oooooooo",
"ooooXXoooooooooooooo  ooooooXXooooooooooooooooXXoooooo  oooooooo",
"ooXXXXXXXXooXXXXoooo  ooooXXXXXXXXooXXXXXXooXXXXXXoooo  ooooXXXX",
"ooXXXXXXXXooXXXXoooo  ooooXXXXXXXXooXXXXXXooXXXXXXoooo  ooooXXXX",
"XXXX..XXXX..XXXXXXoo  ooXXXX..XXXXXXXXXXXX..XXXXXXXXoo  ooXXXXXX",
"XXXX..XXXX..XXXXXXoo  ooXXXX..XXXXXXXXXXXX..XXXXXXXXoo  ooXXXXXX",
"XX....XXXXXX..XXXX..  ..XXXXXX..XXXX....XXXX..XXXXXX..  ..XXXXXX",
"XX....XXXXXX..XXXX..  ..XXXXXX..XXXX....XXXX..XXXXXX..  ..XXXXXX",
"....XXXX..XXXXXX....  ....XXXXXXXX....XXXXXX....XX....  ....XX..",
"....XXXX..XXXXXX....  ....XXXXXXXX....XXXXXX....XX....  ....XX..",
"............XX......  ......XX..........XX............  ........",
"............XX......  ......XX..........XX............  ........",
"..................      ............................      ......",
"..................      ............................      ......",
"                                                                ",
"                                                                ",
"oooooooo      oooooooooooooooooooooooooooo      oooooooooooooooo",
"oooooooo      oooooooooooooooooooooooooooo      oooooooooooooooo",
"ooXXoooooo  ooooooooooooooooXXoooooooooooooo  ooooooooooooXXoooo",
"ooXXoooooo  ooooooooooooooooXXoooooooooooooo  ooooooooooooXXoooo",
"XXXXXXoooo  ooooXXXXooXXXXXXXXXXXXooXXXXoooo  ooooXXXXooXXXXXXoo",
"XXXXXXoooo  ooooXXXXooXXXXXXXXXXXXooXXXXoooo  ooooXXXXooXXXXXXoo",
"XXXXXX..oo  oo..XXXXXXXXXXXX..XX..XXXXXX..oo  oo..XXXXXXXXXXXX..",
"XXXXXX..oo  oo..XXXXXXXXXXXX..XX..XXXXXX..oo  oo..XXXXXXXXXXXX..",
"XXXX......  ......XXXXXXXX....XXXXXXXX......  ......XX....XXXXXX",
"XXXX......  ......XXXXXXXX....XXXXXXXX......  ......XX....XXXXXX",
"XX........  ........XX............XX........  ..................",
"XX........  ........XX............XX........  ..................",
"........      ................    ........      ................",
"........      ................    ........      ................"
};
